<svg enable-background="new 0 0 235 24" viewBox="0 0 235 24" xmlns="http://www.w3.org/2000/svg"><path d="m23.6738 0-10.2968 24h-2.4248l-10.4565-24h2.6572l9.0615 20.4348 8.9684-20.4348z" fill="#595a5a"/><path d="m39.3322 15.7256h-14.6151c.133 1.816.8304 3.2833 2.0928 4.4011 1.2621 1.1186 2.8565 1.6773 4.783 1.6773 1.0846 0 2.081-.1936 2.9892-.5812.9077-.3871 1.6941-.9575 2.3585-1.7106l1.3286 1.5279c-.7755.9302-1.7438 1.6389-2.9065 2.1258-1.1626.4874-2.4413.7307-3.8364.7307-1.7936 0-3.3828-.382-4.7665-1.1459-1.384-.7639-2.4637-1.8212-3.2384-3.1719-.7755-1.3505-1.1626-2.8784-1.1626-4.5838 0-1.7049.3706-3.2328 1.1129-4.5838.7415-1.3505 1.7603-2.4024 3.0557-3.1554 1.2954-.7526 2.7513-1.1294 4.3678-1.1294 1.6163 0 3.0668.3768 4.3513 1.1294 1.284.7531 2.2918 1.7992 3.0227 3.1387.7307 1.3402 1.0961 2.8732 1.0961 4.6006zm-12.6718-5.9622c-1.1407 1.0742-1.7887 2.4745-1.9433 4.2018h12.3895c-.1551-1.7273-.8028-3.1276-1.9431-4.2018-1.1407-1.0737-2.5634-1.6111-4.2683-1.6111-1.6829 0-3.0945.5374-4.2348 1.6111z" fill="#595a5a"/><path d="m47.0325 6.7834c1.0961-.5979 2.4523-.8969 4.0691-.8969v2.2918l-.5647-.033c-1.8384 0-3.2776.5644-4.3181 1.6938-1.0412 1.1294-1.5611 2.7129-1.5611 4.7498l-.0799 9.3815h-2.3583l.0799-17.9511h2.2585v3.4214c.5535-1.1735 1.3787-2.0596 2.4746-2.6573z" fill="#595a5a"/><path d="m64.7943 22.7476c-.4433.3985-.9915.7033-1.6446.9134-.6531.2103-1.3343.3155-2.0426.3155-1.6392 0-2.9013-.4425-3.7866-1.3286-.8858-.8853-1.3286-2.1366-1.3286-3.7534v-10.8542h-3.1222v-1.9931h3.1222v-3.5279h2.3583v3.5279h6.8278v1.9931h-6.8278v10.7215c0 1.041.2601 1.8325.7807 2.375.5204.5428 1.2675.8137 2.2423.8137.4866 0 .9575-.0773 1.4116-.2325.4536-.1547.8467-.3763 1.1791-.6644z" fill="#595a5a"/><path d="m67.8031 2.9003c-.332-.3322-.4984-.7309-.4984-1.1959 0-.4428.1665-.8304.4984-1.1624.332-.3322.7418-.4984 1.2289-.4984.4866 0 .8969.1611 1.2289.4817.3325.3214.4984.7033.4984 1.1459 0 .4874-.166.8969-.4984 1.2291-.332.332-.7423.4982-1.2289.4982-.4871 0-.8969-.1662-1.2289-.4982zm.033 3.3587h2.3583v17.7402h-2.3583z" fill="#595a5a"/><path d="m90.8678 11.6417h4.916v9.3254c-1.2619.9414-2.7237 1.6637-4.3846 2.167-1.6603.5035-3.333.7554-5.0155.7554-2.4139 0-4.5836-.5091-6.5104-1.5269-1.9263-1.0179-3.4374-2.4299-4.5338-4.2358-1.0959-1.8059-1.6441-3.847-1.6441-6.1238 0-2.2765.5482-4.3181 1.6441-6.124 1.0964-1.8059 2.6183-3.2179 4.5673-4.2358 1.9485-1.0179 4.1403-1.5267 6.5769-1.5267 2.0366 0 3.8861.3396 5.547 1.0179 1.6608.6787 3.0557 1.6637 4.1851 2.9553l-3.4547 3.1522c-1.6608-1.729-3.665-2.5942-6.0119-2.5942-1.4835 0-2.8016.307-3.9526.9195-1.1516.613-2.0485 1.4775-2.6902 2.594-.6428 1.1165-.9634 2.397-.9634 3.8419 0 1.4232.3206 2.6923.9634 3.8088.6418 1.1165 1.5328 1.9866 2.6735 2.6105 1.1402.6237 2.4415.9358 3.9029.9358 1.55 0 2.9449-.3284 4.1851-.9852v-6.7313z" fill="#138844"/><path d="m99.6035.0211h5.381v23.819h-5.381z" fill="#138844"/><path d="m111.6436 23.1501c-1.716-.4928-3.0946-1.1335-4.1354-1.9221l1.8268-4.0086c.9964.7228 2.181 1.3036 3.5542 1.7413 1.3727.4385 2.7454.6573 4.1186.6573 1.5284 0 2.6572-.2244 3.3882-.6736.7309-.4487 1.0964-1.0458 1.0964-1.7908 0-.5471-.2162-1.0022-.6477-1.3635-.432-.3615-.9856-.6517-1.6608-.8709-.6758-.2185-1.5894-.4599-2.7405-.7228-1.7717-.4158-3.2217-.8322-4.3511-1.2485-1.1294-.4158-2.0987-1.0843-2.9065-2.0042-.8087-.9201-1.2126-2.1467-1.2126-3.6802 0-1.3357.3655-2.5462 1.0964-3.6305.7304-1.0843 1.8317-1.9438 3.3049-2.5793 1.4722-.6351 3.2719-.9528 5.3977-.9528 1.483 0 2.9336.1754 4.3511.5257 1.417.3506 2.6572.8541 3.7201 1.5114l-1.6608 4.0415c-2.148-1.2044-4.2964-1.8073-6.4439-1.8073-1.5062 0-2.6188.2414-3.3379.723-.7201.4821-1.0796 1.1169-1.0796 1.9055 0 .7888.4152 1.3749 1.2456 1.7579.8304.3837 2.0977.7615 3.8029 1.1338 1.7717.4163 3.2222.8327 4.3516 1.2485 1.1294.4163 2.0977 1.0733 2.9065 1.9713.8078.8984 1.2121 2.1143 1.2121 3.6473 0 1.3143-.3709 2.5133-1.1126 3.5976-.7423 1.0843-1.8549 1.9442-3.3384 2.5793s-3.2882.953-5.414.953c-1.8382.0001-3.6153-.2464-5.3313-.7393z" fill="#138844"/><g fill="#595a5a"><path d="m230.0818 4.6978h-.9338v-.2428h2.1486v.2428h-.9338v2.4144h-.281z"/><path d="m234.5043 4.455v2.6572h-.2695v-2.1256l-1.0439 1.7879h-.1331l-1.0439-1.7768v2.1145h-.2695v-2.6572h.2317l1.154 1.9703 1.1425-1.9703z"/><path d="m137.5892 22.6745v-3.1446c.3699.3177.8121.6036 1.3292.8575.5154.2539 1.0588.4685 1.6294.6433.5706.1744 1.1438.3095 1.7204.4047.5757.0953 1.1081.1429 1.5971.1429 1.6847 0 2.9425-.3041 3.7733-.913.8317-.6085 1.2476-1.4847 1.2476-2.6285 0-.6139-.1386-1.1483-.4158-1.604-.2772-.4549-.6599-.8704-1.1489-1.2465-.489-.3757-1.0681-.7357-1.7366-1.08-.6684-.3438-1.3879-.7067-2.1601-1.0878-.8147-.4022-1.5758-.8099-2.2817-1.2229-.7067-.4126-1.3207-.8679-1.842-1.3658-.5213-.4975-.9321-1.0613-1.2306-1.691-.2993-.6301-.4482-1.3683-.4482-2.2155 0-1.0377.233-1.94.7008-2.708.4669-.7672 1.0809-1.3998 1.842-1.8977.7603-.4975 1.6269-.8679 2.5997-1.1115.9729-.2436 1.9645-.3654 2.9748-.3654 2.3038 0 3.9834.2701 5.037.8099v3.0017c-1.3802-.9317-3.1517-1.3977-5.3143-1.3977-.597 0-1.1948.0609-1.7927.1827s-1.1302.3202-1.5971.5957c-.4677.2751-.8479.6297-1.1413 1.0638s-.4405.9636-.4405 1.5883c0 .5824.1114 1.0854.3342 1.5087s.5519.8099.9865 1.1591c.4346.3496.9644.6885 1.5894 1.0166.6242.3281 1.3445.6881 2.1592 1.08.8368.4022 1.6303.8256 2.3803 1.2701.7501.4449 1.4075.9371 1.9721 1.4773.5655.5398 1.0137 1.138 1.3454 1.7946.3308.6566.4966 1.4081.4966 2.2548 0 1.1226-.2254 2.0725-.6761 2.8509-.4516.778-1.0596 1.411-1.8259 1.8977-.7662.4872-1.649.8393-2.649 1.0559-1.0001.2171-2.0538.3256-3.1619.3256-.3699 0-.8266-.0294-1.3692-.0874-.5443-.0584-1.0979-.1429-1.6634-.2539-.5647-.1114-1.0996-.2486-1.6056-.413-.5049-.164-.9097-.3467-1.2141-.5476z"/><path d="m162.9291 23.4367c-.631.3385-1.4619.5079-2.4943.5079-2.9237 0-4.3848-1.5879-4.3848-4.764v-9.6241h-3.7401v-2.2233h3.7401v-3.9703l2.6729-.8418v4.812h4.2062v2.2233h-4.2062v9.1634c0 1.0903.1905 1.8687.5706 2.3344.3801.466 1.0112.6989 1.8913.6989.6735 0 1.2552-.1798 1.7442-.5398v2.2234z"/><path d="m180.1986 23.5954h-2.6737v-2.5726h-.0646c-1.1089 1.969-2.8259 2.9537-5.151 2.9537-3.9774 0-5.9665-2.3078-5.9665-6.9239v-9.7194h2.6576v9.3064c0 3.4301 1.3471 5.1455 4.042 5.1455 1.3046 0 2.3769-.4685 3.2197-1.4056.8419-.9371 1.2629-2.1624 1.2629-3.6766v-9.3697h2.6737v16.2622z"/><path d="m200.0448 23.5954h-2.6737v-2.7631h-.0646c-1.2391 2.0962-3.1525 3.1442-5.7386 3.1442-2.0971 0-3.7733-.7279-5.0285-2.1836s-1.8828-3.4384-1.8828-5.9475c0-2.689.6956-4.8435 2.0869-6.4637 1.3904-1.6198 3.2435-2.4296 5.5583-2.4296 2.2927 0 3.9613.8786 5.0047 2.6364h.0646v-9.2068h2.6737zm-2.6737-7.3531v-2.3977c0-1.3128-.4456-2.4247-1.3369-3.3352s-2.0206-1.3658-3.3906-1.3658c-1.6294 0-2.9118.5824-3.8465 1.7469-.9346 1.1649-1.4023 2.7739-1.4023 4.8278 0 1.8741.4482 3.3539 1.3454 4.4388.8963 1.0854 2.0997 1.628 3.61 1.628 1.4891 0 2.6984-.524 3.627-1.5725.9296-1.0482 1.3939-2.3713 1.3939-3.9703z"/><path d="m207.0285 4.1022c-.4779 0-.8861-.1608-1.2229-.4819-.3368-.3207-.5052-.7273-.5052-1.2196 0-.492.1684-.9014.5052-1.228.3368-.3262.745-.4894 1.2229-.4894.489 0 .9048.1633 1.2467.4894.3427.3266.5137.736.5137 1.228 0 .471-.1709.8721-.5137 1.2037-.3419.332-.7577.4978-1.2467.4978zm1.3037 19.7379h-2.6729v-16.4359h2.6729z"/><path d="m220.9243 23.9765c-2.4671 0-4.4366-.7593-5.9096-2.2788-1.4721-1.5191-2.2085-3.5336-2.2085-6.0428 0-2.7316.7662-4.8647 2.2987-6.3999s3.6024-2.3029 6.2106-2.3029c2.4883 0 4.4307.7465 5.8271 2.2391 1.3964 1.493 2.0946 3.5631 2.0946 6.2098 0 2.5941-.7526 4.6716-2.257 6.233-1.5053 1.562-3.5242 2.3425-6.0559 2.3425zm.1956-14.833c-1.717 0-3.076.5692-4.0752 1.7072-1.0001 1.1384-1.5002 2.708-1.5002 4.7089 0 1.9271.506 3.4462 1.5163 4.5577 1.0103 1.1119 2.3633 1.6678 4.0591 1.6678 1.728 0 3.0564-.5452 3.9851-1.6359.9295-1.0903 1.3938-2.6413 1.3938-4.653 0-2.0328-.4643-3.5995-1.3938-4.701-.9287-1.1012-2.257-1.6517-3.9851-1.6517z"/></g></svg>